<svg width="182" height="51" viewBox="0 0 182 51" fill="none" xmlns="http://www.w3.org/2000/svg">
<g filter="url(#filter0_d_166612_3190)">
<path d="M23.5385 20.2905C22.4378 20.9224 21.1026 21.4218 19.533 21.7887C17.9634 22.1557 16.3326 22.3391 14.6407 22.3391C12.3576 22.3391 10.4109 22.0639 8.80055 21.5136C7.21056 20.9632 6.00787 20.1987 5.19249 19.2203C4.3975 18.2418 4 17.1105 4 15.8263C4 14.7051 4.30577 13.7165 4.9173 12.8603C5.52884 12.0042 6.3748 11.3417 7.45517 10.8728C6.61941 10.4448 5.9773 9.85361 5.52884 9.09939C5.10076 8.32478 4.88673 7.47882 4.88673 6.56152C4.88673 5.37921 5.25365 4.29884 5.98749 3.32038C6.74172 2.34192 7.88325 1.55712 9.41209 0.965968C10.9409 0.374818 12.8265 0.0792427 15.0688 0.0792427C16.4753 0.0792427 17.8615 0.211742 19.2272 0.476741C20.593 0.74174 21.7957 1.09847 22.8353 1.54693L21.1841 6.07229C19.2884 5.23652 17.3315 4.81864 15.3134 4.81864C13.8661 4.81864 12.7857 5.01229 12.0723 5.3996C11.3588 5.76652 11.0021 6.28633 11.0021 6.95901C11.0021 8.18208 11.8888 8.79362 13.6623 8.79362H19.7165V13.4107H13.2648C12.2251 13.4107 11.4403 13.584 10.9103 13.9305C10.3804 14.2567 10.1154 14.7459 10.1154 15.3982C10.1154 16.0913 10.5027 16.6315 11.2773 17.0188C12.0519 17.4061 13.2546 17.5997 14.8853 17.5997C16.0472 17.5997 17.2397 17.4468 18.4628 17.1411C19.7063 16.8149 20.7866 16.3767 21.7039 15.8263L23.5385 20.2905Z" fill="#333333"/>
<path d="M39.1224 13.2273C41.0182 13.8592 41.9661 15.1638 41.9661 17.1411C41.9661 18.6291 41.3851 19.8013 40.2232 20.6574C39.0613 21.4932 37.349 21.911 35.0863 21.911H25.7604V5.33844H34.6582C36.819 5.33844 38.4905 5.71556 39.6728 6.46979C40.8755 7.22401 41.4768 8.28401 41.4768 9.64977C41.4768 10.4448 41.273 11.148 40.8653 11.7596C40.4576 12.3711 39.8767 12.8603 39.1224 13.2273ZM30.9584 12.0042H34.1384C35.4838 12.0042 36.1565 11.5048 36.1565 10.5059C36.1565 9.54785 35.4838 9.06881 34.1384 9.06881H30.9584V12.0042ZM34.5665 18.1501C35.973 18.1501 36.6763 17.6405 36.6763 16.6213C36.6763 15.602 35.9934 15.0924 34.6276 15.0924H30.9584V18.1501H34.5665Z" fill="#333333"/>
<path d="M52.6672 16.0097H50.7103V21.911H44.9007V5.33844H50.7103V11.4538H52.7895L56.8562 5.33844H63.0022L57.4372 13.2884L63.3691 21.911H56.5199L52.6672 16.0097Z" fill="#333333"/>
<path d="M82.1735 5.33844V21.911H76.364V9.95554H72.1749L72.0526 12.4934C71.9711 14.6542 71.7571 16.4378 71.4105 17.8443C71.064 19.2509 70.4932 20.3516 69.6982 21.1466C68.9032 21.9212 67.8127 22.3085 66.4265 22.3085C65.7131 22.3085 64.7754 22.176 63.6134 21.911L63.8581 17.1717C64.225 17.2124 64.4696 17.2328 64.5919 17.2328C65.2238 17.2328 65.7029 17.029 66.029 16.6213C66.3552 16.2136 66.5794 15.6734 66.7017 15.0007C66.824 14.3076 66.9055 13.3903 66.9463 12.2488L67.1909 5.33844H82.1735Z" fill="#333333"/>
<path d="M103.14 5.33844V21.911H97.6052V20.1682C96.9937 20.8205 96.2599 21.3199 95.4037 21.6664C94.568 22.013 93.671 22.1862 92.713 22.1862C90.5522 22.1862 88.8297 21.5543 87.5455 20.2905C86.2817 19.0266 85.6497 17.1309 85.6497 14.6032V5.33844H91.4593V13.6553C91.4593 16.0403 92.3868 17.2328 94.2418 17.2328C95.1591 17.2328 95.9031 16.9168 96.4739 16.2849C97.0447 15.6326 97.3301 14.644 97.3301 13.319V5.33844H103.14Z" fill="#333333"/>
<path d="M124.682 5.33844V18.8839C124.682 21.962 123.847 24.2655 122.175 25.7943C120.504 27.3435 118.098 28.1181 114.959 28.1181C113.328 28.1181 111.799 27.9347 110.372 27.5677C108.946 27.2008 107.733 26.6606 106.734 25.9472L108.844 21.8805C109.516 22.4309 110.362 22.8589 111.382 23.1647C112.421 23.4908 113.44 23.6539 114.439 23.6539C115.968 23.6539 117.089 23.3176 117.803 22.6449C118.516 21.9722 118.873 20.9734 118.873 19.6484V19.098C117.752 20.4026 116.111 21.0549 113.95 21.0549C112.482 21.0549 111.127 20.7287 109.883 20.0764C108.64 19.4038 107.651 18.4661 106.917 17.2634C106.183 16.0403 105.817 14.6338 105.817 13.0438C105.817 11.4742 106.183 10.088 106.917 8.88535C107.651 7.66228 108.64 6.72459 109.883 6.07229C111.127 5.3996 112.482 5.06326 113.95 5.06326C116.315 5.06326 118.047 5.82767 119.148 7.35651V5.33844H124.682ZM115.326 16.4378C116.366 16.4378 117.222 16.1218 117.894 15.4899C118.587 14.858 118.934 14.0426 118.934 13.0438C118.934 12.0449 118.598 11.2398 117.925 10.6282C117.252 9.99631 116.386 9.68035 115.326 9.68035C114.266 9.68035 113.389 9.99631 112.696 10.6282C112.024 11.2398 111.687 12.0449 111.687 13.0438C111.687 14.0426 112.034 14.858 112.727 15.4899C113.42 16.1218 114.286 16.4378 115.326 16.4378Z" fill="#333333"/>
<path d="M13.4259 30.0098V39.9885H10.6319V32.2479H6.83992V39.9885H4.06012V30.0098H13.4259Z" fill="#333333"/>
<path d="M19.5363 32.1338C20.3822 32.1338 21.1187 32.2954 21.7459 32.6185C22.3732 32.9416 22.8531 33.4073 23.1857 34.0155C23.5278 34.6142 23.6989 35.3175 23.6989 36.1253C23.6989 36.9236 23.5421 37.6269 23.2285 38.2351C22.9149 38.8338 22.4729 39.2995 21.9027 39.6321C21.3325 39.9553 20.672 40.1168 19.9212 40.1168C19.0374 40.1168 18.3436 39.846 17.84 39.3043V42.7541H15.1314V36.1538C15.1314 35.3555 15.312 34.6523 15.6731 34.044C16.0343 33.4358 16.5475 32.9654 17.2127 32.6327C17.878 32.3001 18.6525 32.1338 19.5363 32.1338ZM19.408 37.9643C19.8927 37.9643 20.2824 37.7979 20.577 37.4653C20.8811 37.1232 21.0332 36.6765 21.0332 36.1253C21.0332 35.5741 20.8811 35.1322 20.577 34.7996C20.2824 34.4574 19.8927 34.2864 19.408 34.2864C18.9234 34.2864 18.5337 34.4574 18.2391 34.7996C17.9445 35.1322 17.7972 35.5741 17.7972 36.1253C17.7972 36.686 17.9397 37.1327 18.2248 37.4653C18.5195 37.7979 18.9139 37.9643 19.408 37.9643Z" fill="#333333"/>
<path d="M28.8141 40.1168C27.9873 40.1168 27.2413 39.9458 26.576 39.6036C25.9108 39.2615 25.3881 38.7863 25.008 38.1781C24.6373 37.5699 24.452 36.8809 24.452 36.1111C24.452 35.3508 24.6373 34.6665 25.008 34.0583C25.3881 33.4501 25.906 32.9796 26.5618 32.647C27.227 32.3049 27.9778 32.1338 28.8141 32.1338C29.6505 32.1338 30.4012 32.3049 31.0665 32.647C31.7317 32.9796 32.2497 33.4501 32.6203 34.0583C32.991 34.657 33.1763 35.3413 33.1763 36.1111C33.1763 36.8809 32.991 37.5699 32.6203 38.1781C32.2497 38.7863 31.7317 39.2615 31.0665 39.6036C30.4012 39.9458 29.6505 40.1168 28.8141 40.1168ZM28.8141 37.9643C29.2893 37.9643 29.679 37.8027 29.9831 37.4796C30.2872 37.1469 30.4393 36.6908 30.4393 36.1111C30.4393 35.5408 30.2872 35.0942 29.9831 34.7711C29.679 34.4479 29.2893 34.2864 28.8141 34.2864C28.339 34.2864 27.9493 34.4479 27.6452 34.7711C27.3411 35.0942 27.189 35.5408 27.189 36.1111C27.189 36.6908 27.3411 37.1469 27.6452 37.4796C27.9493 37.8027 28.339 37.9643 28.8141 37.9643Z" fill="#333333"/>
<path d="M38.5379 38.0498C38.9085 38.0498 39.2269 37.9975 39.493 37.893C39.7686 37.7884 40.0442 37.6174 40.3198 37.3798L41.7311 38.8624C40.9993 39.6987 39.9064 40.1168 38.4523 40.1168C37.5495 40.1168 36.7559 39.9458 36.0717 39.6036C35.3874 39.2615 34.8552 38.7863 34.4751 38.1781C34.1044 37.5699 33.9191 36.8809 33.9191 36.1111C33.9191 35.3508 34.1044 34.6713 34.4751 34.0725C34.8457 33.4643 35.3542 32.9891 36.0004 32.647C36.6562 32.3049 37.3879 32.1338 38.1957 32.1338C38.9465 32.1338 39.6308 32.2906 40.2485 32.6042C40.8758 32.9084 41.3747 33.3598 41.7453 33.9585C42.116 34.5477 42.3013 35.251 42.3013 36.0683L36.7845 37.1232C37.0791 37.7409 37.6635 38.0498 38.5379 38.0498ZM38.21 34.0583C37.7443 34.0583 37.3642 34.2056 37.0696 34.5002C36.775 34.7853 36.6086 35.1987 36.5706 35.7404L39.7068 35.1274C39.6118 34.8043 39.4312 34.5477 39.1651 34.3576C38.899 34.1581 38.5806 34.0583 38.21 34.0583Z" fill="#333333"/>
<path d="M47.2137 37.2372H46.3014V39.9885H43.5928V32.2621H46.3014V35.1132H47.2707L49.1667 32.2621H52.032L49.4376 35.9685L52.2031 39.9885H49.0099L47.2137 37.2372Z" fill="#333333"/>
<path d="M63.1654 32.1338C64.1157 32.1338 64.8713 32.4189 65.432 32.9891C66.0022 33.5593 66.2873 34.4194 66.2873 35.5694V39.9885H63.5788V36.0113C63.5788 35.4696 63.4742 35.0704 63.2652 34.8138C63.0656 34.5572 62.7805 34.4289 62.4098 34.4289C62.0012 34.4289 61.6733 34.5715 61.4262 34.8566C61.1791 35.1417 61.0556 35.5741 61.0556 36.1538V39.9885H58.3471V36.0113C58.3471 34.9564 57.9574 34.4289 57.1781 34.4289C56.76 34.4289 56.4273 34.5715 56.1802 34.8566C55.9331 35.1417 55.8096 35.5741 55.8096 36.1538V39.9885H53.1011V32.2621H55.6813V33.0747C55.9664 32.761 56.3038 32.5282 56.6934 32.3762C57.0926 32.2146 57.525 32.1338 57.9907 32.1338C58.5324 32.1338 59.0171 32.2336 59.4447 32.4332C59.8724 32.6327 60.2193 32.9369 60.4854 33.3455C60.7895 32.9559 61.1744 32.6565 61.6401 32.4474C62.1057 32.2383 62.6142 32.1338 63.1654 32.1338Z" fill="#333333"/>
<path d="M67.9272 32.2621H70.6215V35.1274H73.4013V32.2621H76.1098V39.9885H73.4013V37.28H70.6215V39.9885H67.9272V32.2621Z" fill="#333333"/>
<path d="M81.6145 40.2166C79.0581 40.2166 77.7798 39.1189 77.7798 36.9236V32.2621H80.4741V34.714C80.6737 34.581 80.9398 34.4717 81.2724 34.3862C81.6145 34.3006 82.0042 34.2579 82.4413 34.2579C83.3917 34.2579 84.1377 34.5002 84.6794 34.9849C85.2211 35.4601 85.492 36.1681 85.492 37.1089C85.492 38.1258 85.1403 38.9004 84.4371 39.4326C83.7433 39.9553 82.8025 40.2166 81.6145 40.2166ZM86.1335 32.2621H88.842V39.9885H86.1335V32.2621ZM81.6145 38.3634C81.9852 38.3634 82.2655 38.2541 82.4556 38.0355C82.6457 37.817 82.7407 37.5271 82.7407 37.166C82.7407 36.8143 82.6457 36.5387 82.4556 36.3391C82.2655 36.1396 81.9899 36.0398 81.6288 36.0398C81.3722 36.0398 81.1441 36.0873 80.9445 36.1823C80.7449 36.2774 80.5881 36.4057 80.4741 36.5672V37.166C80.4741 37.5366 80.5691 37.8312 80.7592 38.0498C80.9493 38.2589 81.2344 38.3634 81.6145 38.3634Z" fill="#333333"/>
<path d="M94.752 38.0498C95.1226 38.0498 95.441 37.9975 95.7071 37.893C95.9827 37.7884 96.2583 37.6174 96.5339 37.3798L97.9452 38.8624C97.2134 39.6987 96.1205 40.1168 94.6664 40.1168C93.7636 40.1168 92.97 39.9458 92.2858 39.6036C91.6015 39.2615 91.0693 38.7863 90.6892 38.1781C90.3185 37.5699 90.1332 36.8809 90.1332 36.1111C90.1332 35.3508 90.3185 34.6713 90.6892 34.0725C91.0598 33.4643 91.5683 32.9891 92.2145 32.647C92.8702 32.3049 93.602 32.1338 94.4098 32.1338C95.1606 32.1338 95.8449 32.2906 96.4626 32.6042C97.0898 32.9084 97.5888 33.3598 97.9594 33.9585C98.3301 34.5477 98.5154 35.251 98.5154 36.0683L92.9985 37.1232C93.2932 37.7409 93.8776 38.0498 94.752 38.0498ZM94.4241 34.0583C93.9584 34.0583 93.5783 34.2056 93.2837 34.5002C92.989 34.7853 92.8227 35.1987 92.7847 35.7404L95.9209 35.1274C95.8259 34.8043 95.6453 34.5477 95.3792 34.3576C95.1131 34.1581 94.7947 34.0583 94.4241 34.0583Z" fill="#333333"/>
<path d="M107.833 40.1168C106.978 40.1168 106.213 39.9458 105.538 39.6036C104.863 39.2615 104.336 38.7863 103.955 38.1781C103.585 37.5699 103.4 36.8809 103.4 36.1111C103.4 35.3413 103.585 34.657 103.955 34.0583C104.336 33.4501 104.863 32.9796 105.538 32.647C106.213 32.3049 106.978 32.1338 107.833 32.1338C108.707 32.1338 109.463 32.3239 110.1 32.704C110.736 33.0747 111.188 33.5926 111.454 34.2579L109.358 35.327C109.007 34.6333 108.493 34.2864 107.819 34.2864C107.334 34.2864 106.93 34.4479 106.607 34.7711C106.293 35.0942 106.137 35.5408 106.137 36.1111C106.137 36.6908 106.293 37.1469 106.607 37.4796C106.93 37.8027 107.334 37.9643 107.819 37.9643C108.493 37.9643 109.007 37.6174 109.358 36.9236L111.454 37.9928C111.188 38.658 110.736 39.1807 110.1 39.5609C109.463 39.9315 108.707 40.1168 107.833 40.1168Z" fill="#333333"/>
<path d="M120.541 32.2621V39.9885H117.961V39.176C117.676 39.4801 117.334 39.7129 116.935 39.8745C116.545 40.036 116.127 40.1168 115.68 40.1168C114.673 40.1168 113.87 39.8222 113.271 39.233C112.682 38.6438 112.387 37.7599 112.387 36.5815V32.2621H115.096V36.1396C115.096 37.2515 115.528 37.8074 116.393 37.8074C116.821 37.8074 117.167 37.6601 117.433 37.3655C117.7 37.0614 117.833 36.6005 117.833 35.9828V32.2621H120.541Z" fill="#333333"/>
<path d="M126.237 40.1168C125.382 40.1168 124.616 39.9458 123.942 39.6036C123.267 39.2615 122.74 38.7863 122.359 38.1781C121.989 37.5699 121.803 36.8809 121.803 36.1111C121.803 35.3413 121.989 34.657 122.359 34.0583C122.74 33.4501 123.267 32.9796 123.942 32.647C124.616 32.3049 125.382 32.1338 126.237 32.1338C127.111 32.1338 127.867 32.3239 128.503 32.704C129.14 33.0747 129.592 33.5926 129.858 34.2579L127.762 35.327C127.411 34.6333 126.897 34.2864 126.223 34.2864C125.738 34.2864 125.334 34.4479 125.011 34.7711C124.697 35.0942 124.54 35.5408 124.54 36.1111C124.54 36.6908 124.697 37.1469 125.011 37.4796C125.334 37.8027 125.738 37.9643 126.223 37.9643C126.897 37.9643 127.411 37.6174 127.762 36.9236L129.858 37.9928C129.592 38.658 129.14 39.1807 128.503 39.5609C127.867 39.9315 127.111 40.1168 126.237 40.1168Z" fill="#333333"/>
<path d="M141.055 32.1338C142.005 32.1338 142.761 32.4189 143.321 32.9891C143.892 33.5593 144.177 34.4194 144.177 35.5694V39.9885H141.468V36.0113C141.468 35.4696 141.364 35.0704 141.155 34.8138C140.955 34.5572 140.67 34.4289 140.299 34.4289C139.891 34.4289 139.563 34.5715 139.316 34.8566C139.069 35.1417 138.945 35.5741 138.945 36.1538V39.9885H136.237V36.0113C136.237 34.9564 135.847 34.4289 135.068 34.4289C134.649 34.4289 134.317 34.5715 134.07 34.8566C133.823 35.1417 133.699 35.5741 133.699 36.1538V39.9885H130.991V32.2621H133.571V33.0747C133.856 32.761 134.193 32.5282 134.583 32.3762C134.982 32.2146 135.414 32.1338 135.88 32.1338C136.422 32.1338 136.907 32.2336 137.334 32.4332C137.762 32.6327 138.109 32.9369 138.375 33.3455C138.679 32.9559 139.064 32.6565 139.53 32.4474C139.995 32.2383 140.504 32.1338 141.055 32.1338Z" fill="#333333"/>
<path d="M149.908 38.0498C150.279 38.0498 150.597 37.9975 150.863 37.893C151.139 37.7884 151.414 37.6174 151.69 37.3798L153.101 38.8624C152.369 39.6987 151.277 40.1168 149.822 40.1168C148.92 40.1168 148.126 39.9458 147.442 39.6036C146.758 39.2615 146.225 38.7863 145.845 38.1781C145.475 37.5699 145.289 36.8809 145.289 36.1111C145.289 35.3508 145.475 34.6713 145.845 34.0725C146.216 33.4643 146.724 32.9891 147.371 32.647C148.026 32.3049 148.758 32.1338 149.566 32.1338C150.317 32.1338 151.001 32.2906 151.619 32.6042C152.246 32.9084 152.745 33.3598 153.115 33.9585C153.486 34.5477 153.671 35.251 153.671 36.0683L148.155 37.1232C148.449 37.7409 149.034 38.0498 149.908 38.0498ZM149.58 34.0583C149.114 34.0583 148.734 34.2056 148.44 34.5002C148.145 34.7853 147.979 35.1987 147.941 35.7404L151.077 35.1274C150.982 34.8043 150.801 34.5477 150.535 34.3576C150.269 34.1581 149.951 34.0583 149.58 34.0583Z" fill="#333333"/>
<path d="M162.461 39.9885V35.9257L160.48 39.3043H159.325L157.401 35.8687V39.9885H154.963V32.2621H157.814L159.967 36.2964L162.333 32.2621H164.885L164.899 39.9885H162.461Z" fill="#333333"/>
<path d="M170.404 40.2166C167.848 40.2166 166.57 39.1189 166.57 36.9236V32.2621H169.264V34.714C169.464 34.581 169.73 34.4717 170.062 34.3862C170.404 34.3006 170.794 34.2579 171.231 34.2579C172.182 34.2579 172.928 34.5002 173.469 34.9849C174.011 35.4601 174.282 36.1681 174.282 37.1089C174.282 38.1258 173.93 38.9004 173.227 39.4326C172.533 39.9553 171.592 40.2166 170.404 40.2166ZM174.923 32.2621H177.632V39.9885H174.923V32.2621ZM170.404 38.3634C170.775 38.3634 171.055 38.2541 171.245 38.0355C171.436 37.817 171.531 37.5271 171.531 37.166C171.531 36.8143 171.436 36.5387 171.245 36.3391C171.055 36.1396 170.78 36.0398 170.419 36.0398C170.162 36.0398 169.934 36.0873 169.734 36.1823C169.535 36.2774 169.378 36.4057 169.264 36.5672V37.166C169.264 37.5366 169.359 37.8312 169.549 38.0498C169.739 38.2589 170.024 38.3634 170.404 38.3634Z" fill="#333333"/>
</g>
<defs>
<filter id="filter0_d_166612_3190" x="0" y="0.0792427" width="181.632" height="50.6748" filterUnits="userSpaceOnUse" color-interpolation-filters="sRGB">
<feFlood flood-opacity="0" result="BackgroundImageFix"/>
<feColorMatrix in="SourceAlpha" type="matrix" values="0 0 0 0 0 0 0 0 0 0 0 0 0 0 0 0 0 0 127 0" result="hardAlpha"/>
<feOffset dy="4"/>
<feGaussianBlur stdDeviation="2"/>
<feComposite in2="hardAlpha" operator="out"/>
<feColorMatrix type="matrix" values="0 0 0 0 0 0 0 0 0 0 0 0 0 0 0 0 0 0 0.25 0"/>
<feBlend mode="normal" in2="BackgroundImageFix" result="effect1_dropShadow_166612_3190"/>
<feBlend mode="normal" in="SourceGraphic" in2="effect1_dropShadow_166612_3190" result="shape"/>
</filter>
</defs>
</svg>
